<svg width="25" height="24" viewBox="0 0 25 24" fill="none" xmlns="http://www.w3.org/2000/svg">
<path fill-rule="evenodd" clip-rule="evenodd" d="M6.5 12C6.5 11.8011 6.57902 11.6103 6.71967 11.4696C6.86032 11.329 7.05109 11.25 7.25 11.25H15.9395L12.719 8.03097C12.5782 7.89014 12.4991 7.69913 12.4991 7.49997C12.4991 7.30081 12.5782 7.1098 12.719 6.96897C12.8598 6.82814 13.0508 6.74902 13.25 6.74902C13.4492 6.74902 13.6402 6.82814 13.781 6.96897L18.281 11.469C18.3508 11.5386 18.4063 11.6214 18.4441 11.7125C18.4819 11.8036 18.5013 11.9013 18.5013 12C18.5013 12.0986 18.4819 12.1963 18.4441 12.2874C18.4063 12.3785 18.3508 12.4613 18.281 12.531L13.781 17.031C13.6402 17.1718 13.4492 17.2509 13.25 17.2509C13.0508 17.2509 12.8598 17.1718 12.719 17.031C12.5782 16.8901 12.4991 16.6991 12.4991 16.5C12.4991 16.3008 12.5782 16.1098 12.719 15.969L15.9395 12.75H7.25C7.05109 12.75 6.86032 12.671 6.71967 12.5303C6.57902 12.3896 6.5 12.1989 6.5 12Z" fill="white"/>
</svg>
