<svg width="24" height="24" viewBox="0 0 24 24" fill="none" xmlns="http://www.w3.org/2000/svg">
<path fill-rule="evenodd" clip-rule="evenodd" d="M6 12C6 11.8011 6.07902 11.6104 6.21967 11.4697C6.36032 11.329 6.55109 11.25 6.75 11.25H15.4395L12.219 8.03103C12.0782 7.8902 11.9991 7.6992 11.9991 7.50003C11.9991 7.30087 12.0782 7.10986 12.219 6.96903C12.3598 6.8282 12.5508 6.74908 12.75 6.74908C12.9492 6.74908 13.1402 6.8282 13.281 6.96903L17.781 11.469C17.8508 11.5387 17.9063 11.6215 17.9441 11.7126C17.9819 11.8037 18.0013 11.9014 18.0013 12C18.0013 12.0987 17.9819 12.1964 17.9441 12.2875C17.9063 12.3786 17.8508 12.4614 17.781 12.531L13.281 17.031C13.1402 17.1719 12.9492 17.251 12.75 17.251C12.5508 17.251 12.3598 17.1719 12.219 17.031C12.0782 16.8902 11.9991 16.6992 11.9991 16.5C11.9991 16.3009 12.0782 16.1099 12.219 15.969L15.4395 12.75H6.75C6.55109 12.75 6.36032 12.671 6.21967 12.5304C6.07902 12.3897 6 12.1989 6 12Z" fill="white"/>
</svg>
